# xmcd CD database file
#
# Track frame offsets:
#	150
#	10835
#	22450
#	34035
#	46518
#	55800
#	66825
#	78108
#	89298
#	101155
#	111343
#	123250
#	135040
#	145715
#	156705
#	167058
#	178635
#	188763
#	200333
#	211480
#
# Disc length: 2959 seconds
#
# Revision: 0
# Processed by: cddbd v1.5.2PL0 Copyright (c) Steve Scherf et al.
# Submitted via: CDex 1.51
#
DISCID=0e0b8d14
DTITLE=Patsy Cline - 20 Golden Pieces of Patsy Cline
DYEAR=1900
DGENRE=Country
TTITLE0=I Don't Wanta
TTITLE1=Let the Teardrops Fall
TTITLE2=I've Loved and Lost Again
TTITLE3=Fingertips
TTITLE4=I Can't Forget
TTITLE5=Just Out of Reach (of My Two Arms)
TTITLE6=Hungry for Love
TTITLE7=If I Could Only Stay Asleep
TTITLE8=Today, Tomorrow and Forever
TTITLE9=I Love You Honey
TTITLE10=Never No More
TTITLE11=Walking After Midnight
TTITLE12=Pick Me Up on Your Way Down
TTITLE13=Honky Tonk Merry Go Round
TTITLE14=I Cried All the Way to the Alter
TTITLE15=Too Many Secrets
TTITLE16=Three Cigarettes (in an Ashtray)
TTITLE17=In Care of the Blues
TTITLE18=Stop the World (and Let Me Off)
TTITLE19=I Can See an Angel
EXTD=
EXTT0=
EXTT1=
EXTT2=
EXTT3=
EXTT4=
EXTT5=
EXTT6=
EXTT7=
EXTT8=
EXTT9=
EXTT10=
EXTT11=
EXTT12=
EXTT13=
EXTT14=
EXTT15=
EXTT16=
EXTT17=
EXTT18=
EXTT19=
PLAYORDER=
